<?xml version="1.0" standalone="no"?>
<!DOCTYPE svg PUBLIC "-//W3C//DTD SVG 20010904//EN"
 "http://www.w3.org/TR/2001/REC-SVG-20010904/DTD/svg10.dtd">
<svg version="1.0" xmlns="http://www.w3.org/2000/svg"
 width="150.000000pt" height="150.000000pt" viewBox="0 0 150.000000 150.000000"
 preserveAspectRatio="xMidYMid meet">

<g transform="translate(0.000000,150.000000) scale(0.100000,-0.100000)"
fill="#000000" stroke="none">
<path d="M705 1486 c-92 -18 -190 -56 -262 -101 -81 -52 -186 -157 -238 -240
-45 -73 -105 -232 -105 -281 0 -16 -3 -39 -6 -51 l-6 -23 -30 22 c-17 11 -36
35 -44 52 -12 28 -13 16 -14 -120 l0 -151 48 -17 c26 -10 52 -19 58 -21 6 -2
21 -32 33 -67 129 -358 527 -561 900 -458 95 27 214 86 205 103 -7 11 -144
218 -149 225 -1 1 -32 -12 -69 -29 -54 -25 -85 -33 -154 -37 -155 -8 -274 39
-375 148 l-50 55 109 8 c375 26 679 115 887 260 l57 40 0 212 0 213 -66 26
c-64 26 -98 30 -55 6 35 -18 81 -90 81 -124 0 -77 -113 -204 -239 -270 -197
-102 -528 -167 -763 -149 l-78 6 0 52 c0 137 83 282 206 361 117 75 271 96
395 54 34 -12 63 -20 64 -18 2 2 30 58 64 125 l61 123 -29 14 c-100 52 -309
77 -436 52z"/>
<path d="M28 1032 c-24 -14 -28 -23 -28 -62 l1 -45 13 37 c8 21 21 49 30 63
19 29 19 30 -16 7z"/>
</g>
</svg>
